<svg xmlns="http://www.w3.org/2000/svg" width="1000" height="680" viewBox="0 0 1000 680">
<defs><linearGradient id="bg" x1="0" y1="0" x2="1" y2="1"><stop offset="0" stop-color="#071425"/><stop offset="1" stop-color="#101d35"/></linearGradient><filter id="glow"><feGaussianBlur stdDeviation="8" result="b"/><feMerge><feMergeNode in="b"/><feMergeNode in="SourceGraphic"/></feMerge></filter></defs>
<rect width="1000" height="680" fill="url(#bg)"/>
<text x="50" y="52" fill="#e7f6ff" font-size="25" font-family="system-ui" font-weight="700">AX3000T CSI — synthetic coarse-location support heatmap</text>
<rect x="35" y="64" width="930" height="34" rx="7" fill="#7b1f1f"/><text x="50" y="88" fill="#fff4d6" font-size="19" font-family="monospace" font-weight="800">SYNTHETIC SIMULATION — NOT HARDWARE EVIDENCE</text>
<rect x="90" y="110" width="820" height="480" rx="14" fill="#0a182b" stroke="#4e6d91" stroke-width="2"/>
<line x1="90.0" y1="110" x2="90.0" y2="590" stroke="#17304c" stroke-width="1"/>
<line x1="226.7" y1="110" x2="226.7" y2="590" stroke="#17304c" stroke-width="1"/>
<line x1="363.3" y1="110" x2="363.3" y2="590" stroke="#17304c" stroke-width="1"/>
<line x1="500.0" y1="110" x2="500.0" y2="590" stroke="#17304c" stroke-width="1"/>
<line x1="636.7" y1="110" x2="636.7" y2="590" stroke="#17304c" stroke-width="1"/>
<line x1="773.3" y1="110" x2="773.3" y2="590" stroke="#17304c" stroke-width="1"/>
<line x1="910.0" y1="110" x2="910.0" y2="590" stroke="#17304c" stroke-width="1"/>
<line x1="90" y1="590.0" x2="910" y2="590.0" stroke="#17304c" stroke-width="1"/>
<line x1="90" y1="470.0" x2="910" y2="470.0" stroke="#17304c" stroke-width="1"/>
<line x1="90" y1="350.0" x2="910" y2="350.0" stroke="#17304c" stroke-width="1"/>
<line x1="90" y1="230.0" x2="910" y2="230.0" stroke="#17304c" stroke-width="1"/>
<line x1="90" y1="110.0" x2="910" y2="110.0" stroke="#17304c" stroke-width="1"/>
<circle cx="647.6" cy="350.0" r="10" fill="#00d9ff" opacity="0.543"/>
<circle cx="658.5" cy="350.0" r="10" fill="#00d9ff" opacity="0.544"/>
<circle cx="669.5" cy="350.0" r="10" fill="#00d9ff" opacity="0.544"/>
<circle cx="680.4" cy="350.0" r="10" fill="#00d9ff" opacity="0.543"/>
<circle cx="625.7" cy="340.4" r="10" fill="#00d9ff" opacity="0.552"/>
<circle cx="636.7" cy="340.4" r="10" fill="#00d9ff" opacity="0.554"/>
<circle cx="647.6" cy="340.4" r="10" fill="#00d9ff" opacity="0.555"/>
<circle cx="658.5" cy="340.4" r="10" fill="#00d9ff" opacity="0.555"/>
<circle cx="669.5" cy="340.4" r="10" fill="#00d9ff" opacity="0.554"/>
<circle cx="680.4" cy="340.4" r="10" fill="#00d9ff" opacity="0.552"/>
<circle cx="691.3" cy="340.4" r="10" fill="#00d9ff" opacity="0.548"/>
<circle cx="702.3" cy="340.4" r="10" fill="#00d9ff" opacity="0.544"/>
<circle cx="625.7" cy="330.8" r="10" fill="#00d9ff" opacity="0.563"/>
<circle cx="636.7" cy="330.8" r="10" fill="#00d9ff" opacity="0.565"/>
<circle cx="647.6" cy="330.8" r="10" fill="#00d9ff" opacity="0.565"/>
<circle cx="658.5" cy="330.8" r="10" fill="#00d9ff" opacity="0.564"/>
<circle cx="669.5" cy="330.8" r="10" fill="#00d9ff" opacity="0.562"/>
<circle cx="680.4" cy="330.8" r="10" fill="#00d9ff" opacity="0.559"/>
<circle cx="691.3" cy="330.8" r="10" fill="#00d9ff" opacity="0.555"/>
<circle cx="702.3" cy="330.8" r="10" fill="#00d9ff" opacity="0.550"/>
<circle cx="713.2" cy="330.8" r="10" fill="#00d9ff" opacity="0.544"/>
<circle cx="625.7" cy="321.2" r="10" fill="#00d9ff" opacity="0.573"/>
<circle cx="636.7" cy="321.2" r="10" fill="#00d9ff" opacity="0.573"/>
<circle cx="647.6" cy="321.2" r="10" fill="#00d9ff" opacity="0.573"/>
<circle cx="658.5" cy="321.2" r="10" fill="#00d9ff" opacity="0.571"/>
<circle cx="669.5" cy="321.2" r="10" fill="#00d9ff" opacity="0.569"/>
<circle cx="680.4" cy="321.2" r="10" fill="#00d9ff" opacity="0.565"/>
<circle cx="691.3" cy="321.2" r="10" fill="#00d9ff" opacity="0.561"/>
<circle cx="702.3" cy="321.2" r="10" fill="#00d9ff" opacity="0.555"/>
<circle cx="713.2" cy="321.2" r="10" fill="#00d9ff" opacity="0.549"/>
<circle cx="614.8" cy="311.6" r="10" fill="#00d9ff" opacity="0.580"/>
<circle cx="625.7" cy="311.6" r="10" fill="#00d9ff" opacity="0.581"/>
<circle cx="636.7" cy="311.6" r="10" fill="#00d9ff" opacity="0.581"/>
<circle cx="647.6" cy="311.6" r="10" fill="#00d9ff" opacity="0.580"/>
<circle cx="658.5" cy="311.6" r="10" fill="#00d9ff" opacity="0.577"/>
<circle cx="669.5" cy="311.6" r="10" fill="#00d9ff" opacity="0.574"/>
<circle cx="680.4" cy="311.6" r="10" fill="#00d9ff" opacity="0.570"/>
<circle cx="691.3" cy="311.6" r="10" fill="#00d9ff" opacity="0.566"/>
<circle cx="702.3" cy="311.6" r="10" fill="#00d9ff" opacity="0.560"/>
<circle cx="713.2" cy="311.6" r="10" fill="#00d9ff" opacity="0.554"/>
<circle cx="724.1" cy="311.6" r="10" fill="#00d9ff" opacity="0.547"/>
<circle cx="603.9" cy="302.0" r="10" fill="#00d9ff" opacity="0.586"/>
<circle cx="614.8" cy="302.0" r="10" fill="#00d9ff" opacity="0.587"/>
<circle cx="625.7" cy="302.0" r="10" fill="#00d9ff" opacity="0.587"/>
<circle cx="636.7" cy="302.0" r="10" fill="#00d9ff" opacity="0.586"/>
<circle cx="647.6" cy="302.0" r="10" fill="#00d9ff" opacity="0.585"/>
<circle cx="658.5" cy="302.0" r="10" fill="#00d9ff" opacity="0.582"/>
<circle cx="669.5" cy="302.0" r="10" fill="#00d9ff" opacity="0.579"/>
<circle cx="680.4" cy="302.0" r="10" fill="#00d9ff" opacity="0.575"/>
<circle cx="691.3" cy="302.0" r="10" fill="#00d9ff" opacity="0.570"/>
<circle cx="702.3" cy="302.0" r="10" fill="#00d9ff" opacity="0.564"/>
<circle cx="713.2" cy="302.0" r="10" fill="#00d9ff" opacity="0.558"/>
<circle cx="724.1" cy="302.0" r="10" fill="#00d9ff" opacity="0.551"/>
<circle cx="735.1" cy="302.0" r="10" fill="#00d9ff" opacity="0.544"/>
<circle cx="603.9" cy="292.4" r="10" fill="#00d9ff" opacity="0.591"/>
<circle cx="614.8" cy="292.4" r="10" fill="#00d9ff" opacity="0.592"/>
<circle cx="625.7" cy="292.4" r="10" fill="#00d9ff" opacity="0.592"/>
<circle cx="636.7" cy="292.4" r="10" fill="#00d9ff" opacity="0.591"/>
<circle cx="647.6" cy="292.4" r="10" fill="#00d9ff" opacity="0.589"/>
<circle cx="658.5" cy="292.4" r="10" fill="#00d9ff" opacity="0.586"/>
<circle cx="669.5" cy="292.4" r="10" fill="#00d9ff" opacity="0.582"/>
<circle cx="680.4" cy="292.4" r="10" fill="#00d9ff" opacity="0.578"/>
<circle cx="691.3" cy="292.4" r="10" fill="#00d9ff" opacity="0.573"/>
<circle cx="702.3" cy="292.4" r="10" fill="#00d9ff" opacity="0.567"/>
<circle cx="713.2" cy="292.4" r="10" fill="#00d9ff" opacity="0.561"/>
<circle cx="724.1" cy="292.4" r="10" fill="#00d9ff" opacity="0.555"/>
<circle cx="735.1" cy="292.4" r="10" fill="#00d9ff" opacity="0.548"/>
<circle cx="582.0" cy="282.8" r="10" fill="#00d9ff" opacity="0.544"/>
<circle cx="592.9" cy="282.8" r="10" fill="#00d9ff" opacity="0.594"/>
<circle cx="603.9" cy="282.8" r="10" fill="#00d9ff" opacity="0.595"/>
<circle cx="614.8" cy="282.8" r="10" fill="#00d9ff" opacity="0.596"/>
<circle cx="625.7" cy="282.8" r="10" fill="#00d9ff" opacity="0.595"/>
<circle cx="636.7" cy="282.8" r="10" fill="#00d9ff" opacity="0.594"/>
<circle cx="647.6" cy="282.8" r="10" fill="#00d9ff" opacity="0.592"/>
<circle cx="658.5" cy="282.8" r="10" fill="#00d9ff" opacity="0.589"/>
<circle cx="669.5" cy="282.8" r="10" fill="#00d9ff" opacity="0.585"/>
<circle cx="680.4" cy="282.8" r="10" fill="#00d9ff" opacity="0.581"/>
<circle cx="691.3" cy="282.8" r="10" fill="#00d9ff" opacity="0.575"/>
<circle cx="702.3" cy="282.8" r="10" fill="#00d9ff" opacity="0.570"/>
<circle cx="713.2" cy="282.8" r="10" fill="#00d9ff" opacity="0.564"/>
<circle cx="724.1" cy="282.8" r="10" fill="#00d9ff" opacity="0.558"/>
<circle cx="735.1" cy="282.8" r="10" fill="#00d9ff" opacity="0.552"/>
<circle cx="746.0" cy="282.8" r="10" fill="#00d9ff" opacity="0.546"/>
<circle cx="571.1" cy="273.2" r="10" fill="#00d9ff" opacity="0.544"/>
<circle cx="582.0" cy="273.2" r="10" fill="#00d9ff" opacity="0.547"/>
<circle cx="592.9" cy="273.2" r="10" fill="#00d9ff" opacity="0.597"/>
<circle cx="603.9" cy="273.2" r="10" fill="#00d9ff" opacity="0.598"/>
<circle cx="614.8" cy="273.2" r="10" fill="#00d9ff" opacity="0.598"/>
<circle cx="625.7" cy="273.2" r="10" fill="#00d9ff" opacity="0.598"/>
<circle cx="636.7" cy="273.2" r="10" fill="#00d9ff" opacity="0.596"/>
<circle cx="647.6" cy="273.2" r="10" fill="#00d9ff" opacity="0.594"/>
<circle cx="658.5" cy="273.2" r="10" fill="#00d9ff" opacity="0.591"/>
<circle cx="669.5" cy="273.2" r="10" fill="#00d9ff" opacity="0.587"/>
<circle cx="680.4" cy="273.2" r="10" fill="#00d9ff" opacity="0.582"/>
<circle cx="691.3" cy="273.2" r="10" fill="#00d9ff" opacity="0.578"/>
<circle cx="702.3" cy="273.2" r="10" fill="#00d9ff" opacity="0.572"/>
<circle cx="713.2" cy="273.2" r="10" fill="#00d9ff" opacity="0.566"/>
<circle cx="724.1" cy="273.2" r="10" fill="#00d9ff" opacity="0.561"/>
<circle cx="735.1" cy="273.2" r="10" fill="#00d9ff" opacity="0.555"/>
<circle cx="746.0" cy="273.2" r="10" fill="#00d9ff" opacity="0.549"/>
<circle cx="756.9" cy="273.2" r="10" fill="#00d9ff" opacity="0.544"/>
<circle cx="560.1" cy="263.6" r="10" fill="#00d9ff" opacity="0.543"/>
<circle cx="571.1" cy="263.6" r="10" fill="#00d9ff" opacity="0.546"/>
<circle cx="582.0" cy="263.6" r="10" fill="#00d9ff" opacity="0.597"/>
<circle cx="592.9" cy="263.6" r="10" fill="#00d9ff" opacity="0.599"/>
<circle cx="603.9" cy="263.6" r="10" fill="#00d9ff" opacity="0.600"/>
<circle cx="614.8" cy="263.6" r="10" fill="#00d9ff" opacity="0.600"/>
<circle cx="625.7" cy="263.6" r="10" fill="#00d9ff" opacity="0.599"/>
<circle cx="636.7" cy="263.6" r="10" fill="#00d9ff" opacity="0.597"/>
<circle cx="647.6" cy="263.6" r="10" fill="#00d9ff" opacity="0.595"/>
<circle cx="658.5" cy="263.6" r="10" fill="#00d9ff" opacity="0.592"/>
<circle cx="669.5" cy="263.6" r="10" fill="#00d9ff" opacity="0.588"/>
<circle cx="680.4" cy="263.6" r="10" fill="#00d9ff" opacity="0.584"/>
<circle cx="691.3" cy="263.6" r="10" fill="#00d9ff" opacity="0.579"/>
<circle cx="702.3" cy="263.6" r="10" fill="#00d9ff" opacity="0.574"/>
<circle cx="713.2" cy="263.6" r="10" fill="#00d9ff" opacity="0.569"/>
<circle cx="724.1" cy="263.6" r="10" fill="#00d9ff" opacity="0.563"/>
<circle cx="735.1" cy="263.6" r="10" fill="#00d9ff" opacity="0.558"/>
<circle cx="746.0" cy="263.6" r="10" fill="#00d9ff" opacity="0.552"/>
<circle cx="756.9" cy="263.6" r="10" fill="#00d9ff" opacity="0.547"/>
<circle cx="560.1" cy="254.0" r="10" fill="#00d9ff" opacity="0.544"/>
<circle cx="571.1" cy="254.0" r="10" fill="#00d9ff" opacity="0.595"/>
<circle cx="582.0" cy="254.0" r="10" fill="#00d9ff" opacity="0.598"/>
<circle cx="592.9" cy="254.0" r="10" fill="#00d9ff" opacity="0.599"/>
<circle cx="603.9" cy="254.0" r="10" fill="#00d9ff" opacity="0.600"/>
<circle cx="614.8" cy="254.0" r="10" fill="#00d9ff" opacity="0.600"/>
<circle cx="625.7" cy="254.0" r="10" fill="#00d9ff" opacity="0.599"/>
<circle cx="636.7" cy="254.0" r="10" fill="#00d9ff" opacity="0.598"/>
<circle cx="647.6" cy="254.0" r="10" fill="#00d9ff" opacity="0.595"/>
<circle cx="658.5" cy="254.0" r="10" fill="#00d9ff" opacity="0.592"/>
<circle cx="669.5" cy="254.0" r="10" fill="#00d9ff" opacity="0.589"/>
<circle cx="680.4" cy="254.0" r="10" fill="#00d9ff" opacity="0.585"/>
<circle cx="691.3" cy="254.0" r="10" fill="#00d9ff" opacity="0.580"/>
<circle cx="702.3" cy="254.0" r="10" fill="#00d9ff" opacity="0.575"/>
<circle cx="713.2" cy="254.0" r="10" fill="#00d9ff" opacity="0.570"/>
<circle cx="724.1" cy="254.0" r="10" fill="#00d9ff" opacity="0.565"/>
<circle cx="735.1" cy="254.0" r="10" fill="#00d9ff" opacity="0.560"/>
<circle cx="746.0" cy="254.0" r="10" fill="#00d9ff" opacity="0.555"/>
<circle cx="756.9" cy="254.0" r="10" fill="#00d9ff" opacity="0.550"/>
<circle cx="767.9" cy="254.0" r="10" fill="#00d9ff" opacity="0.546"/>
<circle cx="560.1" cy="244.4" r="10" fill="#00d9ff" opacity="0.592"/>
<circle cx="571.1" cy="244.4" r="10" fill="#00d9ff" opacity="0.595"/>
<circle cx="582.0" cy="244.4" r="10" fill="#00d9ff" opacity="0.597"/>
<circle cx="592.9" cy="244.4" r="10" fill="#00d9ff" opacity="0.599"/>
<circle cx="603.9" cy="244.4" r="10" fill="#00d9ff" opacity="0.600"/>
<circle cx="614.8" cy="244.4" r="10" fill="#00d9ff" opacity="0.600"/>
<circle cx="625.7" cy="244.4" r="10" fill="#00d9ff" opacity="0.599"/>
<circle cx="636.7" cy="244.4" r="10" fill="#00d9ff" opacity="0.597"/>
<circle cx="647.6" cy="244.4" r="10" fill="#00d9ff" opacity="0.595"/>
<circle cx="658.5" cy="244.4" r="10" fill="#00d9ff" opacity="0.592"/>
<circle cx="669.5" cy="244.4" r="10" fill="#00d9ff" opacity="0.589"/>
<circle cx="680.4" cy="244.4" r="10" fill="#00d9ff" opacity="0.585"/>
<circle cx="691.3" cy="244.4" r="10" fill="#00d9ff" opacity="0.581"/>
<circle cx="702.3" cy="244.4" r="10" fill="#00d9ff" opacity="0.576"/>
<circle cx="713.2" cy="244.4" r="10" fill="#00d9ff" opacity="0.571"/>
<circle cx="724.1" cy="244.4" r="10" fill="#00d9ff" opacity="0.566"/>
<circle cx="735.1" cy="244.4" r="10" fill="#00d9ff" opacity="0.562"/>
<circle cx="746.0" cy="244.4" r="10" fill="#00d9ff" opacity="0.557"/>
<circle cx="756.9" cy="244.4" r="10" fill="#00d9ff" opacity="0.553"/>
<circle cx="767.9" cy="244.4" r="10" fill="#00d9ff" opacity="0.549"/>
<circle cx="778.8" cy="244.4" r="10" fill="#00d9ff" opacity="0.545"/>
<circle cx="560.1" cy="234.8" r="10" fill="#00d9ff" opacity="0.591"/>
<circle cx="571.1" cy="234.8" r="10" fill="#00d9ff" opacity="0.594"/>
<circle cx="582.0" cy="234.8" r="10" fill="#00d9ff" opacity="0.596"/>
<circle cx="592.9" cy="234.8" r="10" fill="#00d9ff" opacity="0.598"/>
<circle cx="603.9" cy="234.8" r="10" fill="#00d9ff" opacity="0.598"/>
<circle cx="614.8" cy="234.8" r="10" fill="#00d9ff" opacity="0.598"/>
<circle cx="625.7" cy="234.8" r="10" fill="#00d9ff" opacity="0.598"/>
<circle cx="636.7" cy="234.8" r="10" fill="#00d9ff" opacity="0.596"/>
<circle cx="647.6" cy="234.8" r="10" fill="#00d9ff" opacity="0.594"/>
<circle cx="658.5" cy="234.8" r="10" fill="#00d9ff" opacity="0.591"/>
<circle cx="669.5" cy="234.8" r="10" fill="#00d9ff" opacity="0.588"/>
<circle cx="680.4" cy="234.8" r="10" fill="#00d9ff" opacity="0.585"/>
<circle cx="691.3" cy="234.8" r="10" fill="#00d9ff" opacity="0.581"/>
<circle cx="702.3" cy="234.8" r="10" fill="#00d9ff" opacity="0.576"/>
<circle cx="713.2" cy="234.8" r="10" fill="#00d9ff" opacity="0.572"/>
<circle cx="724.1" cy="234.8" r="10" fill="#00d9ff" opacity="0.568"/>
<circle cx="735.1" cy="234.8" r="10" fill="#00d9ff" opacity="0.563"/>
<circle cx="746.0" cy="234.8" r="10" fill="#00d9ff" opacity="0.559"/>
<circle cx="756.9" cy="234.8" r="10" fill="#00d9ff" opacity="0.555"/>
<circle cx="767.9" cy="234.8" r="10" fill="#00d9ff" opacity="0.551"/>
<circle cx="778.8" cy="234.8" r="10" fill="#00d9ff" opacity="0.548"/>
<circle cx="789.7" cy="234.8" r="10" fill="#00d9ff" opacity="0.545"/>
<circle cx="549.2" cy="225.2" r="10" fill="#00d9ff" opacity="0.586"/>
<circle cx="560.1" cy="225.2" r="10" fill="#00d9ff" opacity="0.589"/>
<circle cx="571.1" cy="225.2" r="10" fill="#00d9ff" opacity="0.592"/>
<circle cx="582.0" cy="225.2" r="10" fill="#00d9ff" opacity="0.595"/>
<circle cx="592.9" cy="225.2" r="10" fill="#00d9ff" opacity="0.596"/>
<circle cx="603.9" cy="225.2" r="10" fill="#00d9ff" opacity="0.597"/>
<circle cx="614.8" cy="225.2" r="10" fill="#00d9ff" opacity="0.597"/>
<circle cx="625.7" cy="225.2" r="10" fill="#00d9ff" opacity="0.596"/>
<circle cx="636.7" cy="225.2" r="10" fill="#00d9ff" opacity="0.595"/>
<circle cx="647.6" cy="225.2" r="10" fill="#00d9ff" opacity="0.593"/>
<circle cx="658.5" cy="225.2" r="10" fill="#00d9ff" opacity="0.590"/>
<circle cx="669.5" cy="225.2" r="10" fill="#00d9ff" opacity="0.587"/>
<circle cx="680.4" cy="225.2" r="10" fill="#00d9ff" opacity="0.584"/>
<circle cx="691.3" cy="225.2" r="10" fill="#00d9ff" opacity="0.580"/>
<circle cx="702.3" cy="225.2" r="10" fill="#00d9ff" opacity="0.576"/>
<circle cx="713.2" cy="225.2" r="10" fill="#00d9ff" opacity="0.572"/>
<circle cx="724.1" cy="225.2" r="10" fill="#00d9ff" opacity="0.568"/>
<circle cx="735.1" cy="225.2" r="10" fill="#00d9ff" opacity="0.564"/>
<circle cx="746.0" cy="225.2" r="10" fill="#00d9ff" opacity="0.560"/>
<circle cx="756.9" cy="225.2" r="10" fill="#00d9ff" opacity="0.557"/>
<circle cx="767.9" cy="225.2" r="10" fill="#00d9ff" opacity="0.553"/>
<circle cx="778.8" cy="225.2" r="10" fill="#00d9ff" opacity="0.550"/>
<circle cx="789.7" cy="225.2" r="10" fill="#00d9ff" opacity="0.548"/>
<circle cx="800.7" cy="225.2" r="10" fill="#00d9ff" opacity="0.545"/>
<circle cx="811.6" cy="225.2" r="10" fill="#00d9ff" opacity="0.544"/>
<circle cx="899.1" cy="225.2" r="10" fill="#00d9ff" opacity="0.544"/>
<circle cx="910.0" cy="225.2" r="10" fill="#00d9ff" opacity="0.545"/>
<circle cx="538.3" cy="215.6" r="10" fill="#00d9ff" opacity="0.579"/>
<circle cx="549.2" cy="215.6" r="10" fill="#00d9ff" opacity="0.584"/>
<circle cx="560.1" cy="215.6" r="10" fill="#00d9ff" opacity="0.587"/>
<circle cx="571.1" cy="215.6" r="10" fill="#00d9ff" opacity="0.590"/>
<circle cx="582.0" cy="215.6" r="10" fill="#00d9ff" opacity="0.592"/>
<circle cx="592.9" cy="215.6" r="10" fill="#00d9ff" opacity="0.594"/>
<circle cx="603.9" cy="215.6" r="10" fill="#00d9ff" opacity="0.594"/>
<circle cx="614.8" cy="215.6" r="10" fill="#00d9ff" opacity="0.594"/>
<circle cx="625.7" cy="215.6" r="10" fill="#00d9ff" opacity="0.594"/>
<circle cx="636.7" cy="215.6" r="10" fill="#00d9ff" opacity="0.593"/>
<circle cx="647.6" cy="215.6" r="10" fill="#00d9ff" opacity="0.591"/>
<circle cx="658.5" cy="215.6" r="10" fill="#00d9ff" opacity="0.589"/>
<circle cx="669.5" cy="215.6" r="10" fill="#00d9ff" opacity="0.586"/>
<circle cx="680.4" cy="215.6" r="10" fill="#00d9ff" opacity="0.583"/>
<circle cx="691.3" cy="215.6" r="10" fill="#00d9ff" opacity="0.580"/>
<circle cx="702.3" cy="215.6" r="10" fill="#00d9ff" opacity="0.576"/>
<circle cx="713.2" cy="215.6" r="10" fill="#00d9ff" opacity="0.573"/>
<circle cx="724.1" cy="215.6" r="10" fill="#00d9ff" opacity="0.569"/>
<circle cx="735.1" cy="215.6" r="10" fill="#00d9ff" opacity="0.565"/>
<circle cx="746.0" cy="215.6" r="10" fill="#00d9ff" opacity="0.562"/>
<circle cx="756.9" cy="215.6" r="10" fill="#00d9ff" opacity="0.558"/>
<circle cx="767.9" cy="215.6" r="10" fill="#00d9ff" opacity="0.555"/>
<circle cx="778.8" cy="215.6" r="10" fill="#00d9ff" opacity="0.552"/>
<circle cx="789.7" cy="215.6" r="10" fill="#00d9ff" opacity="0.550"/>
<circle cx="800.7" cy="215.6" r="10" fill="#00d9ff" opacity="0.548"/>
<circle cx="811.6" cy="215.6" r="10" fill="#00d9ff" opacity="0.546"/>
<circle cx="822.5" cy="215.6" r="10" fill="#00d9ff" opacity="0.545"/>
<circle cx="833.5" cy="215.6" r="10" fill="#00d9ff" opacity="0.544"/>
<circle cx="844.4" cy="215.6" r="10" fill="#00d9ff" opacity="0.544"/>
<circle cx="855.3" cy="215.6" r="10" fill="#00d9ff" opacity="0.544"/>
<circle cx="866.3" cy="215.6" r="10" fill="#00d9ff" opacity="0.544"/>
<circle cx="877.2" cy="215.6" r="10" fill="#00d9ff" opacity="0.545"/>
<circle cx="888.1" cy="215.6" r="10" fill="#00d9ff" opacity="0.546"/>
<circle cx="899.1" cy="215.6" r="10" fill="#00d9ff" opacity="0.547"/>
<circle cx="910.0" cy="215.6" r="10" fill="#00d9ff" opacity="0.548"/>
<circle cx="527.3" cy="206.0" r="10" fill="#00d9ff" opacity="0.572"/>
<circle cx="538.3" cy="206.0" r="10" fill="#00d9ff" opacity="0.577"/>
<circle cx="549.2" cy="206.0" r="10" fill="#00d9ff" opacity="0.581"/>
<circle cx="560.1" cy="206.0" r="10" fill="#00d9ff" opacity="0.584"/>
<circle cx="571.1" cy="206.0" r="10" fill="#00d9ff" opacity="0.587"/>
<circle cx="582.0" cy="206.0" r="10" fill="#00d9ff" opacity="0.589"/>
<circle cx="592.9" cy="206.0" r="10" fill="#00d9ff" opacity="0.591"/>
<circle cx="603.9" cy="206.0" r="10" fill="#00d9ff" opacity="0.592"/>
<circle cx="614.8" cy="206.0" r="10" fill="#00d9ff" opacity="0.592"/>
<circle cx="625.7" cy="206.0" r="10" fill="#00d9ff" opacity="0.591"/>
<circle cx="636.7" cy="206.0" r="10" fill="#00d9ff" opacity="0.590"/>
<circle cx="647.6" cy="206.0" r="10" fill="#00d9ff" opacity="0.589"/>
<circle cx="658.5" cy="206.0" r="10" fill="#00d9ff" opacity="0.587"/>
<circle cx="669.5" cy="206.0" r="10" fill="#00d9ff" opacity="0.584"/>
<circle cx="680.4" cy="206.0" r="10" fill="#00d9ff" opacity="0.582"/>
<circle cx="691.3" cy="206.0" r="10" fill="#00d9ff" opacity="0.579"/>
<circle cx="702.3" cy="206.0" r="10" fill="#00d9ff" opacity="0.576"/>
<circle cx="713.2" cy="206.0" r="10" fill="#00d9ff" opacity="0.572"/>
<circle cx="724.1" cy="206.0" r="10" fill="#00d9ff" opacity="0.569"/>
<circle cx="735.1" cy="206.0" r="10" fill="#00d9ff" opacity="0.566"/>
<circle cx="746.0" cy="206.0" r="10" fill="#00d9ff" opacity="0.562"/>
<circle cx="756.9" cy="206.0" r="10" fill="#00d9ff" opacity="0.559"/>
<circle cx="767.9" cy="206.0" r="10" fill="#00d9ff" opacity="0.557"/>
<circle cx="778.8" cy="206.0" r="10" fill="#00d9ff" opacity="0.554"/>
<circle cx="789.7" cy="206.0" r="10" fill="#00d9ff" opacity="0.552"/>
<circle cx="800.7" cy="206.0" r="10" fill="#00d9ff" opacity="0.550"/>
<circle cx="811.6" cy="206.0" r="10" fill="#00d9ff" opacity="0.549"/>
<circle cx="822.5" cy="206.0" r="10" fill="#00d9ff" opacity="0.547"/>
<circle cx="833.5" cy="206.0" r="10" fill="#00d9ff" opacity="0.547"/>
<circle cx="844.4" cy="206.0" r="10" fill="#00d9ff" opacity="0.546"/>
<circle cx="855.3" cy="206.0" r="10" fill="#00d9ff" opacity="0.546"/>
<circle cx="866.3" cy="206.0" r="10" fill="#00d9ff" opacity="0.547"/>
<circle cx="877.2" cy="206.0" r="10" fill="#00d9ff" opacity="0.547"/>
<circle cx="888.1" cy="206.0" r="10" fill="#00d9ff" opacity="0.548"/>
<circle cx="899.1" cy="206.0" r="10" fill="#00d9ff" opacity="0.549"/>
<circle cx="910.0" cy="206.0" r="10" fill="#00d9ff" opacity="0.551"/>
<circle cx="516.4" cy="196.4" r="10" fill="#00d9ff" opacity="0.564"/>
<circle cx="527.3" cy="196.4" r="10" fill="#00d9ff" opacity="0.569"/>
<circle cx="538.3" cy="196.4" r="10" fill="#00d9ff" opacity="0.574"/>
<circle cx="549.2" cy="196.4" r="10" fill="#00d9ff" opacity="0.578"/>
<circle cx="560.1" cy="196.4" r="10" fill="#00d9ff" opacity="0.581"/>
<circle cx="571.1" cy="196.4" r="10" fill="#00d9ff" opacity="0.584"/>
<circle cx="582.0" cy="196.4" r="10" fill="#00d9ff" opacity="0.586"/>
<circle cx="592.9" cy="196.4" r="10" fill="#00d9ff" opacity="0.588"/>
<circle cx="603.9" cy="196.4" r="10" fill="#00d9ff" opacity="0.589"/>
<circle cx="614.8" cy="196.4" r="10" fill="#00d9ff" opacity="0.589"/>
<circle cx="625.7" cy="196.4" r="10" fill="#00d9ff" opacity="0.589"/>
<circle cx="636.7" cy="196.4" r="10" fill="#00d9ff" opacity="0.588"/>
<circle cx="647.6" cy="196.4" r="10" fill="#00d9ff" opacity="0.586"/>
<circle cx="658.5" cy="196.4" r="10" fill="#00d9ff" opacity="0.585"/>
<circle cx="669.5" cy="196.4" r="10" fill="#00d9ff" opacity="0.583"/>
<circle cx="680.4" cy="196.4" r="10" fill="#00d9ff" opacity="0.580"/>
<circle cx="691.3" cy="196.4" r="10" fill="#00d9ff" opacity="0.577"/>
<circle cx="702.3" cy="196.4" r="10" fill="#00d9ff" opacity="0.575"/>
<circle cx="713.2" cy="196.4" r="10" fill="#00d9ff" opacity="0.572"/>
<circle cx="724.1" cy="196.4" r="10" fill="#00d9ff" opacity="0.569"/>
<circle cx="735.1" cy="196.4" r="10" fill="#00d9ff" opacity="0.566"/>
<circle cx="746.0" cy="196.4" r="10" fill="#00d9ff" opacity="0.563"/>
<circle cx="756.9" cy="196.4" r="10" fill="#00d9ff" opacity="0.560"/>
<circle cx="767.9" cy="196.4" r="10" fill="#00d9ff" opacity="0.558"/>
<circle cx="778.8" cy="196.4" r="10" fill="#00d9ff" opacity="0.555"/>
<circle cx="789.7" cy="196.4" r="10" fill="#00d9ff" opacity="0.553"/>
<circle cx="800.7" cy="196.4" r="10" fill="#00d9ff" opacity="0.552"/>
<circle cx="811.6" cy="196.4" r="10" fill="#00d9ff" opacity="0.551"/>
<circle cx="822.5" cy="196.4" r="10" fill="#00d9ff" opacity="0.550"/>
<circle cx="833.5" cy="196.4" r="10" fill="#00d9ff" opacity="0.549"/>
<circle cx="844.4" cy="196.4" r="10" fill="#00d9ff" opacity="0.549"/>
<circle cx="855.3" cy="196.4" r="10" fill="#00d9ff" opacity="0.549"/>
<circle cx="866.3" cy="196.4" r="10" fill="#00d9ff" opacity="0.549"/>
<circle cx="877.2" cy="196.4" r="10" fill="#00d9ff" opacity="0.550"/>
<circle cx="888.1" cy="196.4" r="10" fill="#00d9ff" opacity="0.551"/>
<circle cx="899.1" cy="196.4" r="10" fill="#00d9ff" opacity="0.552"/>
<circle cx="910.0" cy="196.4" r="10" fill="#00d9ff" opacity="0.553"/>
<circle cx="505.5" cy="186.8" r="10" fill="#00d9ff" opacity="0.556"/>
<circle cx="516.4" cy="186.8" r="10" fill="#00d9ff" opacity="0.561"/>
<circle cx="527.3" cy="186.8" r="10" fill="#00d9ff" opacity="0.566"/>
<circle cx="538.3" cy="186.8" r="10" fill="#00d9ff" opacity="0.571"/>
<circle cx="549.2" cy="186.8" r="10" fill="#00d9ff" opacity="0.575"/>
<circle cx="560.1" cy="186.8" r="10" fill="#00d9ff" opacity="0.578"/>
<circle cx="571.1" cy="186.8" r="10" fill="#00d9ff" opacity="0.581"/>
<circle cx="582.0" cy="186.8" r="10" fill="#00d9ff" opacity="0.583"/>
<circle cx="592.9" cy="186.8" r="10" fill="#00d9ff" opacity="0.584"/>
<circle cx="603.9" cy="186.8" r="10" fill="#00d9ff" opacity="0.585"/>
<circle cx="614.8" cy="186.8" r="10" fill="#00d9ff" opacity="0.586"/>
<circle cx="625.7" cy="186.8" r="10" fill="#00d9ff" opacity="0.585"/>
<circle cx="636.7" cy="186.8" r="10" fill="#00d9ff" opacity="0.585"/>
<circle cx="647.6" cy="186.8" r="10" fill="#00d9ff" opacity="0.584"/>
<circle cx="658.5" cy="186.8" r="10" fill="#00d9ff" opacity="0.582"/>
<circle cx="669.5" cy="186.8" r="10" fill="#00d9ff" opacity="0.580"/>
<circle cx="680.4" cy="186.8" r="10" fill="#00d9ff" opacity="0.578"/>
<circle cx="691.3" cy="186.8" r="10" fill="#00d9ff" opacity="0.576"/>
<circle cx="702.3" cy="186.8" r="10" fill="#00d9ff" opacity="0.573"/>
<circle cx="713.2" cy="186.8" r="10" fill="#00d9ff" opacity="0.571"/>
<circle cx="724.1" cy="186.8" r="10" fill="#00d9ff" opacity="0.568"/>
<circle cx="735.1" cy="186.8" r="10" fill="#00d9ff" opacity="0.566"/>
<circle cx="746.0" cy="186.8" r="10" fill="#00d9ff" opacity="0.563"/>
<circle cx="756.9" cy="186.8" r="10" fill="#00d9ff" opacity="0.561"/>
<circle cx="767.9" cy="186.8" r="10" fill="#00d9ff" opacity="0.558"/>
<circle cx="778.8" cy="186.8" r="10" fill="#00d9ff" opacity="0.557"/>
<circle cx="789.7" cy="186.8" r="10" fill="#00d9ff" opacity="0.555"/>
<circle cx="800.7" cy="186.8" r="10" fill="#00d9ff" opacity="0.553"/>
<circle cx="811.6" cy="186.8" r="10" fill="#00d9ff" opacity="0.552"/>
<circle cx="822.5" cy="186.8" r="10" fill="#00d9ff" opacity="0.551"/>
<circle cx="833.5" cy="186.8" r="10" fill="#00d9ff" opacity="0.551"/>
<circle cx="844.4" cy="186.8" r="10" fill="#00d9ff" opacity="0.551"/>
<circle cx="855.3" cy="186.8" r="10" fill="#00d9ff" opacity="0.551"/>
<circle cx="866.3" cy="186.8" r="10" fill="#00d9ff" opacity="0.551"/>
<circle cx="877.2" cy="186.8" r="10" fill="#00d9ff" opacity="0.552"/>
<circle cx="888.1" cy="186.8" r="10" fill="#00d9ff" opacity="0.553"/>
<circle cx="899.1" cy="186.8" r="10" fill="#00d9ff" opacity="0.554"/>
<circle cx="910.0" cy="186.8" r="10" fill="#00d9ff" opacity="0.555"/>
<circle cx="505.5" cy="177.2" r="10" fill="#00d9ff" opacity="0.552"/>
<circle cx="516.4" cy="177.2" r="10" fill="#00d9ff" opacity="0.558"/>
<circle cx="527.3" cy="177.2" r="10" fill="#00d9ff" opacity="0.563"/>
<circle cx="538.3" cy="177.2" r="10" fill="#00d9ff" opacity="0.567"/>
<circle cx="549.2" cy="177.2" r="10" fill="#00d9ff" opacity="0.571"/>
<circle cx="560.1" cy="177.2" r="10" fill="#00d9ff" opacity="0.574"/>
<circle cx="571.1" cy="177.2" r="10" fill="#00d9ff" opacity="0.577"/>
<circle cx="582.0" cy="177.2" r="10" fill="#00d9ff" opacity="0.579"/>
<circle cx="592.9" cy="177.2" r="10" fill="#00d9ff" opacity="0.581"/>
<circle cx="603.9" cy="177.2" r="10" fill="#00d9ff" opacity="0.582"/>
<circle cx="614.8" cy="177.2" r="10" fill="#00d9ff" opacity="0.582"/>
<circle cx="625.7" cy="177.2" r="10" fill="#00d9ff" opacity="0.582"/>
<circle cx="636.7" cy="177.2" r="10" fill="#00d9ff" opacity="0.582"/>
<circle cx="647.6" cy="177.2" r="10" fill="#00d9ff" opacity="0.581"/>
<circle cx="658.5" cy="177.2" r="10" fill="#00d9ff" opacity="0.580"/>
<circle cx="669.5" cy="177.2" r="10" fill="#00d9ff" opacity="0.578"/>
<circle cx="680.4" cy="177.2" r="10" fill="#00d9ff" opacity="0.576"/>
<circle cx="691.3" cy="177.2" r="10" fill="#00d9ff" opacity="0.574"/>
<circle cx="702.3" cy="177.2" r="10" fill="#00d9ff" opacity="0.572"/>
<circle cx="713.2" cy="177.2" r="10" fill="#00d9ff" opacity="0.570"/>
<circle cx="724.1" cy="177.2" r="10" fill="#00d9ff" opacity="0.567"/>
<circle cx="735.1" cy="177.2" r="10" fill="#00d9ff" opacity="0.565"/>
<circle cx="746.0" cy="177.2" r="10" fill="#00d9ff" opacity="0.563"/>
<circle cx="756.9" cy="177.2" r="10" fill="#00d9ff" opacity="0.561"/>
<circle cx="767.9" cy="177.2" r="10" fill="#00d9ff" opacity="0.559"/>
<circle cx="778.8" cy="177.2" r="10" fill="#00d9ff" opacity="0.557"/>
<circle cx="789.7" cy="177.2" r="10" fill="#00d9ff" opacity="0.556"/>
<circle cx="800.7" cy="177.2" r="10" fill="#00d9ff" opacity="0.555"/>
<circle cx="811.6" cy="177.2" r="10" fill="#00d9ff" opacity="0.554"/>
<circle cx="822.5" cy="177.2" r="10" fill="#00d9ff" opacity="0.553"/>
<circle cx="833.5" cy="177.2" r="10" fill="#00d9ff" opacity="0.553"/>
<circle cx="844.4" cy="177.2" r="10" fill="#00d9ff" opacity="0.552"/>
<circle cx="855.3" cy="177.2" r="10" fill="#00d9ff" opacity="0.553"/>
<circle cx="866.3" cy="177.2" r="10" fill="#00d9ff" opacity="0.553"/>
<circle cx="877.2" cy="177.2" r="10" fill="#00d9ff" opacity="0.554"/>
<circle cx="888.1" cy="177.2" r="10" fill="#00d9ff" opacity="0.555"/>
<circle cx="899.1" cy="177.2" r="10" fill="#00d9ff" opacity="0.556"/>
<circle cx="910.0" cy="177.2" r="10" fill="#00d9ff" opacity="0.557"/>
<circle cx="516.4" cy="167.6" r="10" fill="#00d9ff" opacity="0.554"/>
<circle cx="527.3" cy="167.6" r="10" fill="#00d9ff" opacity="0.559"/>
<circle cx="538.3" cy="167.6" r="10" fill="#00d9ff" opacity="0.563"/>
<circle cx="549.2" cy="167.6" r="10" fill="#00d9ff" opacity="0.567"/>
<circle cx="560.1" cy="167.6" r="10" fill="#00d9ff" opacity="0.570"/>
<circle cx="571.1" cy="167.6" r="10" fill="#00d9ff" opacity="0.573"/>
<circle cx="582.0" cy="167.6" r="10" fill="#00d9ff" opacity="0.575"/>
<circle cx="592.9" cy="167.6" r="10" fill="#00d9ff" opacity="0.577"/>
<circle cx="603.9" cy="167.6" r="10" fill="#00d9ff" opacity="0.578"/>
<circle cx="614.8" cy="167.6" r="10" fill="#00d9ff" opacity="0.578"/>
<circle cx="625.7" cy="167.6" r="10" fill="#00d9ff" opacity="0.579"/>
<circle cx="636.7" cy="167.6" r="10" fill="#00d9ff" opacity="0.578"/>
<circle cx="647.6" cy="167.6" r="10" fill="#00d9ff" opacity="0.578"/>
<circle cx="658.5" cy="167.6" r="10" fill="#00d9ff" opacity="0.577"/>
<circle cx="669.5" cy="167.6" r="10" fill="#00d9ff" opacity="0.576"/>
<circle cx="680.4" cy="167.6" r="10" fill="#00d9ff" opacity="0.574"/>
<circle cx="691.3" cy="167.6" r="10" fill="#00d9ff" opacity="0.572"/>
<circle cx="702.3" cy="167.6" r="10" fill="#00d9ff" opacity="0.570"/>
<circle cx="713.2" cy="167.6" r="10" fill="#00d9ff" opacity="0.568"/>
<circle cx="724.1" cy="167.6" r="10" fill="#00d9ff" opacity="0.566"/>
<circle cx="735.1" cy="167.6" r="10" fill="#00d9ff" opacity="0.564"/>
<circle cx="746.0" cy="167.6" r="10" fill="#00d9ff" opacity="0.563"/>
<circle cx="756.9" cy="167.6" r="10" fill="#00d9ff" opacity="0.561"/>
<circle cx="767.9" cy="167.6" r="10" fill="#00d9ff" opacity="0.559"/>
<circle cx="778.8" cy="167.6" r="10" fill="#00d9ff" opacity="0.558"/>
<circle cx="789.7" cy="167.6" r="10" fill="#00d9ff" opacity="0.556"/>
<circle cx="800.7" cy="167.6" r="10" fill="#00d9ff" opacity="0.555"/>
<circle cx="811.6" cy="167.6" r="10" fill="#00d9ff" opacity="0.555"/>
<circle cx="822.5" cy="167.6" r="10" fill="#00d9ff" opacity="0.554"/>
<circle cx="833.5" cy="167.6" r="10" fill="#00d9ff" opacity="0.554"/>
<circle cx="844.4" cy="167.6" r="10" fill="#00d9ff" opacity="0.554"/>
<circle cx="855.3" cy="167.6" r="10" fill="#00d9ff" opacity="0.554"/>
<circle cx="866.3" cy="167.6" r="10" fill="#00d9ff" opacity="0.555"/>
<circle cx="877.2" cy="167.6" r="10" fill="#00d9ff" opacity="0.555"/>
<circle cx="888.1" cy="167.6" r="10" fill="#00d9ff" opacity="0.556"/>
<circle cx="899.1" cy="167.6" r="10" fill="#00d9ff" opacity="0.557"/>
<circle cx="910.0" cy="167.6" r="10" fill="#00d9ff" opacity="0.559"/>
<circle cx="527.3" cy="158.0" r="10" fill="#00d9ff" opacity="0.555"/>
<circle cx="538.3" cy="158.0" r="10" fill="#00d9ff" opacity="0.560"/>
<circle cx="549.2" cy="158.0" r="10" fill="#00d9ff" opacity="0.563"/>
<circle cx="560.1" cy="158.0" r="10" fill="#00d9ff" opacity="0.566"/>
<circle cx="571.1" cy="158.0" r="10" fill="#00d9ff" opacity="0.569"/>
<circle cx="582.0" cy="158.0" r="10" fill="#00d9ff" opacity="0.571"/>
<circle cx="592.9" cy="158.0" r="10" fill="#00d9ff" opacity="0.573"/>
<circle cx="603.9" cy="158.0" r="10" fill="#00d9ff" opacity="0.574"/>
<circle cx="614.8" cy="158.0" r="10" fill="#00d9ff" opacity="0.575"/>
<circle cx="625.7" cy="158.0" r="10" fill="#00d9ff" opacity="0.575"/>
<circle cx="636.7" cy="158.0" r="10" fill="#00d9ff" opacity="0.575"/>
<circle cx="647.6" cy="158.0" r="10" fill="#00d9ff" opacity="0.575"/>
<circle cx="658.5" cy="158.0" r="10" fill="#00d9ff" opacity="0.574"/>
<circle cx="669.5" cy="158.0" r="10" fill="#00d9ff" opacity="0.573"/>
<circle cx="680.4" cy="158.0" r="10" fill="#00d9ff" opacity="0.572"/>
<circle cx="691.3" cy="158.0" r="10" fill="#00d9ff" opacity="0.570"/>
<circle cx="702.3" cy="158.0" r="10" fill="#00d9ff" opacity="0.569"/>
<circle cx="713.2" cy="158.0" r="10" fill="#00d9ff" opacity="0.567"/>
<circle cx="724.1" cy="158.0" r="10" fill="#00d9ff" opacity="0.565"/>
<circle cx="735.1" cy="158.0" r="10" fill="#00d9ff" opacity="0.564"/>
<circle cx="746.0" cy="158.0" r="10" fill="#00d9ff" opacity="0.562"/>
<circle cx="756.9" cy="158.0" r="10" fill="#00d9ff" opacity="0.560"/>
<circle cx="767.9" cy="158.0" r="10" fill="#00d9ff" opacity="0.559"/>
<circle cx="778.8" cy="158.0" r="10" fill="#00d9ff" opacity="0.558"/>
<circle cx="789.7" cy="158.0" r="10" fill="#00d9ff" opacity="0.557"/>
<circle cx="800.7" cy="158.0" r="10" fill="#00d9ff" opacity="0.556"/>
<circle cx="811.6" cy="158.0" r="10" fill="#00d9ff" opacity="0.555"/>
<circle cx="822.5" cy="158.0" r="10" fill="#00d9ff" opacity="0.555"/>
<circle cx="833.5" cy="158.0" r="10" fill="#00d9ff" opacity="0.555"/>
<circle cx="844.4" cy="158.0" r="10" fill="#00d9ff" opacity="0.555"/>
<circle cx="855.3" cy="158.0" r="10" fill="#00d9ff" opacity="0.555"/>
<circle cx="866.3" cy="158.0" r="10" fill="#00d9ff" opacity="0.556"/>
<circle cx="877.2" cy="158.0" r="10" fill="#00d9ff" opacity="0.557"/>
<circle cx="888.1" cy="158.0" r="10" fill="#00d9ff" opacity="0.558"/>
<circle cx="899.1" cy="158.0" r="10" fill="#00d9ff" opacity="0.559"/>
<circle cx="910.0" cy="158.0" r="10" fill="#00d9ff" opacity="0.560"/>
<circle cx="549.2" cy="148.4" r="10" fill="#00d9ff" opacity="0.559"/>
<circle cx="560.1" cy="148.4" r="10" fill="#00d9ff" opacity="0.562"/>
<circle cx="571.1" cy="148.4" r="10" fill="#00d9ff" opacity="0.565"/>
<circle cx="582.0" cy="148.4" r="10" fill="#00d9ff" opacity="0.567"/>
<circle cx="592.9" cy="148.4" r="10" fill="#00d9ff" opacity="0.569"/>
<circle cx="603.9" cy="148.4" r="10" fill="#00d9ff" opacity="0.570"/>
<circle cx="614.8" cy="148.4" r="10" fill="#00d9ff" opacity="0.571"/>
<circle cx="625.7" cy="148.4" r="10" fill="#00d9ff" opacity="0.571"/>
<circle cx="636.7" cy="148.4" r="10" fill="#00d9ff" opacity="0.571"/>
<circle cx="647.6" cy="148.4" r="10" fill="#00d9ff" opacity="0.571"/>
<circle cx="658.5" cy="148.4" r="10" fill="#00d9ff" opacity="0.571"/>
<circle cx="669.5" cy="148.4" r="10" fill="#00d9ff" opacity="0.570"/>
<circle cx="680.4" cy="148.4" r="10" fill="#00d9ff" opacity="0.569"/>
<circle cx="691.3" cy="148.4" r="10" fill="#00d9ff" opacity="0.568"/>
<circle cx="702.3" cy="148.4" r="10" fill="#00d9ff" opacity="0.567"/>
<circle cx="713.2" cy="148.4" r="10" fill="#00d9ff" opacity="0.565"/>
<circle cx="724.1" cy="148.4" r="10" fill="#00d9ff" opacity="0.564"/>
<circle cx="735.1" cy="148.4" r="10" fill="#00d9ff" opacity="0.562"/>
<circle cx="746.0" cy="148.4" r="10" fill="#00d9ff" opacity="0.561"/>
<circle cx="756.9" cy="148.4" r="10" fill="#00d9ff" opacity="0.560"/>
<circle cx="767.9" cy="148.4" r="10" fill="#00d9ff" opacity="0.559"/>
<circle cx="778.8" cy="148.4" r="10" fill="#00d9ff" opacity="0.558"/>
<circle cx="789.7" cy="148.4" r="10" fill="#00d9ff" opacity="0.557"/>
<circle cx="800.7" cy="148.4" r="10" fill="#00d9ff" opacity="0.556"/>
<circle cx="811.6" cy="148.4" r="10" fill="#00d9ff" opacity="0.556"/>
<circle cx="822.5" cy="148.4" r="10" fill="#00d9ff" opacity="0.556"/>
<circle cx="833.5" cy="148.4" r="10" fill="#00d9ff" opacity="0.556"/>
<circle cx="844.4" cy="148.4" r="10" fill="#00d9ff" opacity="0.556"/>
<circle cx="855.3" cy="148.4" r="10" fill="#00d9ff" opacity="0.556"/>
<circle cx="866.3" cy="148.4" r="10" fill="#00d9ff" opacity="0.557"/>
<circle cx="877.2" cy="148.4" r="10" fill="#00d9ff" opacity="0.558"/>
<circle cx="888.1" cy="148.4" r="10" fill="#00d9ff" opacity="0.559"/>
<circle cx="899.1" cy="148.4" r="10" fill="#00d9ff" opacity="0.560"/>
<circle cx="910.0" cy="148.4" r="10" fill="#00d9ff" opacity="0.561"/>
<circle cx="560.1" cy="138.8" r="10" fill="#00d9ff" opacity="0.558"/>
<circle cx="571.1" cy="138.8" r="10" fill="#00d9ff" opacity="0.561"/>
<circle cx="582.0" cy="138.8" r="10" fill="#00d9ff" opacity="0.563"/>
<circle cx="592.9" cy="138.8" r="10" fill="#00d9ff" opacity="0.565"/>
<circle cx="603.9" cy="138.8" r="10" fill="#00d9ff" opacity="0.566"/>
<circle cx="614.8" cy="138.8" r="10" fill="#00d9ff" opacity="0.567"/>
<circle cx="625.7" cy="138.8" r="10" fill="#00d9ff" opacity="0.568"/>
<circle cx="636.7" cy="138.8" r="10" fill="#00d9ff" opacity="0.568"/>
<circle cx="647.6" cy="138.8" r="10" fill="#00d9ff" opacity="0.568"/>
<circle cx="658.5" cy="138.8" r="10" fill="#00d9ff" opacity="0.568"/>
<circle cx="669.5" cy="138.8" r="10" fill="#00d9ff" opacity="0.567"/>
<circle cx="680.4" cy="138.8" r="10" fill="#00d9ff" opacity="0.566"/>
<circle cx="691.3" cy="138.8" r="10" fill="#00d9ff" opacity="0.565"/>
<circle cx="702.3" cy="138.8" r="10" fill="#00d9ff" opacity="0.564"/>
<circle cx="713.2" cy="138.8" r="10" fill="#00d9ff" opacity="0.563"/>
<circle cx="724.1" cy="138.8" r="10" fill="#00d9ff" opacity="0.562"/>
<circle cx="735.1" cy="138.8" r="10" fill="#00d9ff" opacity="0.561"/>
<circle cx="746.0" cy="138.8" r="10" fill="#00d9ff" opacity="0.560"/>
<circle cx="756.9" cy="138.8" r="10" fill="#00d9ff" opacity="0.559"/>
<circle cx="767.9" cy="138.8" r="10" fill="#00d9ff" opacity="0.558"/>
<circle cx="778.8" cy="138.8" r="10" fill="#00d9ff" opacity="0.557"/>
<circle cx="789.7" cy="138.8" r="10" fill="#00d9ff" opacity="0.557"/>
<circle cx="800.7" cy="138.8" r="10" fill="#00d9ff" opacity="0.556"/>
<circle cx="811.6" cy="138.8" r="10" fill="#00d9ff" opacity="0.556"/>
<circle cx="822.5" cy="138.8" r="10" fill="#00d9ff" opacity="0.556"/>
<circle cx="833.5" cy="138.8" r="10" fill="#00d9ff" opacity="0.556"/>
<circle cx="844.4" cy="138.8" r="10" fill="#00d9ff" opacity="0.557"/>
<circle cx="855.3" cy="138.8" r="10" fill="#00d9ff" opacity="0.557"/>
<circle cx="866.3" cy="138.8" r="10" fill="#00d9ff" opacity="0.558"/>
<circle cx="877.2" cy="138.8" r="10" fill="#00d9ff" opacity="0.559"/>
<circle cx="888.1" cy="138.8" r="10" fill="#00d9ff" opacity="0.560"/>
<circle cx="899.1" cy="138.8" r="10" fill="#00d9ff" opacity="0.561"/>
<circle cx="910.0" cy="138.8" r="10" fill="#00d9ff" opacity="0.562"/>
<circle cx="582.0" cy="129.2" r="10" fill="#00d9ff" opacity="0.559"/>
<circle cx="592.9" cy="129.2" r="10" fill="#00d9ff" opacity="0.561"/>
<circle cx="603.9" cy="129.2" r="10" fill="#00d9ff" opacity="0.562"/>
<circle cx="614.8" cy="129.2" r="10" fill="#00d9ff" opacity="0.563"/>
<circle cx="625.7" cy="129.2" r="10" fill="#00d9ff" opacity="0.564"/>
<circle cx="636.7" cy="129.2" r="10" fill="#00d9ff" opacity="0.564"/>
<circle cx="647.6" cy="129.2" r="10" fill="#00d9ff" opacity="0.564"/>
<circle cx="658.5" cy="129.2" r="10" fill="#00d9ff" opacity="0.564"/>
<circle cx="669.5" cy="129.2" r="10" fill="#00d9ff" opacity="0.564"/>
<circle cx="680.4" cy="129.2" r="10" fill="#00d9ff" opacity="0.564"/>
<circle cx="691.3" cy="129.2" r="10" fill="#00d9ff" opacity="0.563"/>
<circle cx="702.3" cy="129.2" r="10" fill="#00d9ff" opacity="0.562"/>
<circle cx="713.2" cy="129.2" r="10" fill="#00d9ff" opacity="0.561"/>
<circle cx="724.1" cy="129.2" r="10" fill="#00d9ff" opacity="0.561"/>
<circle cx="735.1" cy="129.2" r="10" fill="#00d9ff" opacity="0.560"/>
<circle cx="746.0" cy="129.2" r="10" fill="#00d9ff" opacity="0.559"/>
<circle cx="756.9" cy="129.2" r="10" fill="#00d9ff" opacity="0.558"/>
<circle cx="767.9" cy="129.2" r="10" fill="#00d9ff" opacity="0.557"/>
<circle cx="778.8" cy="129.2" r="10" fill="#00d9ff" opacity="0.557"/>
<circle cx="789.7" cy="129.2" r="10" fill="#00d9ff" opacity="0.556"/>
<circle cx="800.7" cy="129.2" r="10" fill="#00d9ff" opacity="0.556"/>
<circle cx="811.6" cy="129.2" r="10" fill="#00d9ff" opacity="0.556"/>
<circle cx="822.5" cy="129.2" r="10" fill="#00d9ff" opacity="0.556"/>
<circle cx="833.5" cy="129.2" r="10" fill="#00d9ff" opacity="0.556"/>
<circle cx="844.4" cy="129.2" r="10" fill="#00d9ff" opacity="0.557"/>
<circle cx="855.3" cy="129.2" r="10" fill="#00d9ff" opacity="0.558"/>
<circle cx="866.3" cy="129.2" r="10" fill="#00d9ff" opacity="0.558"/>
<circle cx="877.2" cy="129.2" r="10" fill="#00d9ff" opacity="0.559"/>
<circle cx="888.1" cy="129.2" r="10" fill="#00d9ff" opacity="0.560"/>
<circle cx="899.1" cy="129.2" r="10" fill="#00d9ff" opacity="0.562"/>
<circle cx="910.0" cy="129.2" r="10" fill="#00d9ff" opacity="0.563"/>
<circle cx="603.9" cy="119.6" r="10" fill="#00d9ff" opacity="0.558"/>
<circle cx="614.8" cy="119.6" r="10" fill="#00d9ff" opacity="0.559"/>
<circle cx="625.7" cy="119.6" r="10" fill="#00d9ff" opacity="0.560"/>
<circle cx="636.7" cy="119.6" r="10" fill="#00d9ff" opacity="0.561"/>
<circle cx="647.6" cy="119.6" r="10" fill="#00d9ff" opacity="0.561"/>
<circle cx="658.5" cy="119.6" r="10" fill="#00d9ff" opacity="0.561"/>
<circle cx="669.5" cy="119.6" r="10" fill="#00d9ff" opacity="0.561"/>
<circle cx="680.4" cy="119.6" r="10" fill="#00d9ff" opacity="0.561"/>
<circle cx="691.3" cy="119.6" r="10" fill="#00d9ff" opacity="0.560"/>
<circle cx="702.3" cy="119.6" r="10" fill="#00d9ff" opacity="0.560"/>
<circle cx="713.2" cy="119.6" r="10" fill="#00d9ff" opacity="0.559"/>
<circle cx="724.1" cy="119.6" r="10" fill="#00d9ff" opacity="0.559"/>
<circle cx="735.1" cy="119.6" r="10" fill="#00d9ff" opacity="0.558"/>
<circle cx="746.0" cy="119.6" r="10" fill="#00d9ff" opacity="0.557"/>
<circle cx="756.9" cy="119.6" r="10" fill="#00d9ff" opacity="0.557"/>
<circle cx="767.9" cy="119.6" r="10" fill="#00d9ff" opacity="0.556"/>
<circle cx="778.8" cy="119.6" r="10" fill="#00d9ff" opacity="0.556"/>
<circle cx="789.7" cy="119.6" r="10" fill="#00d9ff" opacity="0.556"/>
<circle cx="800.7" cy="119.6" r="10" fill="#00d9ff" opacity="0.556"/>
<circle cx="811.6" cy="119.6" r="10" fill="#00d9ff" opacity="0.556"/>
<circle cx="822.5" cy="119.6" r="10" fill="#00d9ff" opacity="0.556"/>
<circle cx="833.5" cy="119.6" r="10" fill="#00d9ff" opacity="0.557"/>
<circle cx="844.4" cy="119.6" r="10" fill="#00d9ff" opacity="0.557"/>
<circle cx="855.3" cy="119.6" r="10" fill="#00d9ff" opacity="0.558"/>
<circle cx="866.3" cy="119.6" r="10" fill="#00d9ff" opacity="0.559"/>
<circle cx="877.2" cy="119.6" r="10" fill="#00d9ff" opacity="0.560"/>
<circle cx="888.1" cy="119.6" r="10" fill="#00d9ff" opacity="0.561"/>
<circle cx="899.1" cy="119.6" r="10" fill="#00d9ff" opacity="0.562"/>
<circle cx="910.0" cy="119.6" r="10" fill="#00d9ff" opacity="0.563"/>
<circle cx="625.7" cy="110.0" r="10" fill="#00d9ff" opacity="0.556"/>
<circle cx="636.7" cy="110.0" r="10" fill="#00d9ff" opacity="0.557"/>
<circle cx="647.6" cy="110.0" r="10" fill="#00d9ff" opacity="0.557"/>
<circle cx="658.5" cy="110.0" r="10" fill="#00d9ff" opacity="0.558"/>
<circle cx="669.5" cy="110.0" r="10" fill="#00d9ff" opacity="0.558"/>
<circle cx="680.4" cy="110.0" r="10" fill="#00d9ff" opacity="0.558"/>
<circle cx="691.3" cy="110.0" r="10" fill="#00d9ff" opacity="0.558"/>
<circle cx="702.3" cy="110.0" r="10" fill="#00d9ff" opacity="0.557"/>
<circle cx="713.2" cy="110.0" r="10" fill="#00d9ff" opacity="0.557"/>
<circle cx="724.1" cy="110.0" r="10" fill="#00d9ff" opacity="0.557"/>
<circle cx="735.1" cy="110.0" r="10" fill="#00d9ff" opacity="0.556"/>
<circle cx="746.0" cy="110.0" r="10" fill="#00d9ff" opacity="0.556"/>
<circle cx="756.9" cy="110.0" r="10" fill="#00d9ff" opacity="0.556"/>
<circle cx="767.9" cy="110.0" r="10" fill="#00d9ff" opacity="0.555"/>
<circle cx="778.8" cy="110.0" r="10" fill="#00d9ff" opacity="0.555"/>
<circle cx="789.7" cy="110.0" r="10" fill="#00d9ff" opacity="0.555"/>
<circle cx="800.7" cy="110.0" r="10" fill="#00d9ff" opacity="0.555"/>
<circle cx="811.6" cy="110.0" r="10" fill="#00d9ff" opacity="0.556"/>
<circle cx="822.5" cy="110.0" r="10" fill="#00d9ff" opacity="0.556"/>
<circle cx="833.5" cy="110.0" r="10" fill="#00d9ff" opacity="0.556"/>
<circle cx="844.4" cy="110.0" r="10" fill="#00d9ff" opacity="0.557"/>
<circle cx="855.3" cy="110.0" r="10" fill="#00d9ff" opacity="0.558"/>
<circle cx="866.3" cy="110.0" r="10" fill="#00d9ff" opacity="0.559"/>
<circle cx="877.2" cy="110.0" r="10" fill="#00d9ff" opacity="0.560"/>
<circle cx="888.1" cy="110.0" r="10" fill="#00d9ff" opacity="0.561"/>
<circle cx="899.1" cy="110.0" r="10" fill="#00d9ff" opacity="0.562"/>
<circle cx="910.0" cy="110.0" r="10" fill="#00d9ff" opacity="0.564"/>
<line x1="185.7" y1="506.0" x2="603.9" y2="254.0" stroke="#66e3ff" stroke-width="3" stroke-dasharray="10 8" opacity="0.72"/>
<circle cx="185.7" cy="506.0" r="18" fill="#692cff" stroke="#d7c9ff" stroke-width="3" filter="url(#glow)"/>
<text x="210.7" y="511.0" fill="#e8e1ff" font-size="15" font-family="system-ui">SYNTHETIC-AX3000T-A</text>
<line x1="814.3" y1="494.0" x2="603.9" y2="254.0" stroke="#66e3ff" stroke-width="3" stroke-dasharray="10 8" opacity="0.72"/>
<circle cx="814.3" cy="494.0" r="18" fill="#692cff" stroke="#d7c9ff" stroke-width="3" filter="url(#glow)"/>
<text x="839.3" y="499.0" fill="#e8e1ff" font-size="15" font-family="system-ui">SYNTHETIC-AX3000T-B</text>
<circle cx="609.3" cy="254.0" r="10" fill="none" stroke="#7cff8d" stroke-width="4"/>
<text x="625.3" y="242.0" fill="#9effaa" font-size="14" font-family="system-ui">synthetic truth</text>
<circle cx="603.9" cy="254.0" r="22" fill="#00d9ff" opacity="0.30" filter="url(#glow)"/>
<circle cx="603.9" cy="254.0" r="7" fill="#ffffff"/>
<text x="619.9" y="278.0" fill="#dffaff" font-size="14" font-family="system-ui">display peak 3.76, 2.80 m</text>
<text x="90" y="625" fill="#91a8c4" font-size="14" font-family="system-ui">Output: normalized support heatmap / coarse sectors / ambiguity flags — not a body outline or calibrated location probability.</text>
<text x="90" y="650" fill="#91a8c4" font-size="14" font-family="system-ui">80% display-mass radius 2.08 m · evidence score 0.20 (quality indicator)</text>
</svg>
